<?xml version="1.0" encoding="iso-8859-1"?>
<!-- Uploaded to: SVG Repo, www.svgrepo.com, Generator: SVG Repo Mixer Tools -->
<svg version="1.1" id="Layer_1" xmlns="http://www.w3.org/2000/svg" xmlns:xlink="http://www.w3.org/1999/xlink" 
	 viewBox="0 0 511.999 511.999" xml:space="preserve">
<path style="fill:#85A1A6;" d="M130.547,115.876v139.741c0,37.707,30.568,68.275,68.275,68.275h114.354
	c37.707,0,68.275-30.568,68.275-68.275V115.876H130.547z"/>
<g>
	<path style="fill:#F4C49D;" d="M134.079,147.998c-22.218,0-40.227,18.01-40.227,40.228l0,0c0,22.218,18.01,40.227,40.227,40.227
		h18.461v-80.455H134.079z"/>
	<path style="fill:#F4C49D;" d="M377.919,147.998c22.218,0,40.227,18.01,40.227,40.228l0,0c0,22.218-18.01,40.227-40.227,40.227
		h-18.462v-80.455H377.919z"/>
	<rect x="221.328" y="282.194" style="fill:#F4C49D;" width="69.336" height="67.598"/>
</g>
<path style="opacity:0.1;fill:#333333;enable-background:new    ;" d="M221.329,333.866c11.124,2.691,22.731,4.127,34.67,4.127
	s23.546-1.437,34.67-4.127v-51.673h-69.34L221.329,333.866L221.329,333.866z"/>
<path style="fill:#FCCDA2;" d="M381.452,125.452v65.087c0,69.285-56.167,125.452-125.452,125.452l0,0
	c-69.285,0-125.452-56.167-125.452-125.452v-65.087l125.452-90.197L381.452,125.452z"/>
<path style="fill:#85A1A6;" d="M255.999,0L255.999,0c-69.285,0-125.452,56.167-125.452,125.452v22.547
	c102.266-18.256,125.452-84.821,125.452-84.821s23.186,66.564,125.452,84.821v-22.547C381.452,56.167,325.285,0,255.999,0z"/>
<path style="opacity:0.1;fill:#333333;enable-background:new    ;" d="M153.098,190.54v-47.652v-17.437
	c0-65.483,50.175-119.239,114.177-124.942C263.56,0.179,259.8,0,255.999,0l0,0c-69.285,0-125.451,56.167-125.451,125.451v22.546
	v42.542c0,69.285,56.167,125.452,125.451,125.452l0,0c3.802,0,7.561-0.179,11.275-0.51
	C203.273,309.779,153.098,256.024,153.098,190.54z"/>
<path style="fill:#85A1A6;" d="M278.55,63.177c0,0-2.929,8.394-11.275,20.034c15.162,21.146,48.218,53.011,114.177,64.787v-5.11
	C298.254,119.745,278.55,63.177,278.55,63.177z"/>
<g>
	<circle style="fill:#293133;" cx="197.182" cy="170.881" r="16.241"/>
	<circle style="fill:#293133;" cx="314.821" cy="170.881" r="16.241"/>
	<path style="fill:#293133;" d="M256.004,252.968c-18.655,0-36.094-4.518-46.647-12.084c-3.703-2.654-4.553-7.809-1.899-11.512
		c2.656-3.704,7.813-4.552,11.513-1.899c7.738,5.548,21.929,8.994,37.033,8.994c15.099,0,29.286-3.444,37.027-8.99
		c3.699-2.652,8.858-1.803,11.512,1.903c2.652,3.704,1.801,8.858-1.903,11.512C292.084,248.454,274.65,252.968,256.004,252.968z"/>
</g>
<path style="fill:#FF8095;" d="M323.561,349.791H188.438c-52.239,0-94.586,42.347-94.586,94.586v67.622h324.294v-67.622
	C418.147,392.139,375.799,349.791,323.561,349.791z"/>
<path style="fill:#FFF9F2;" d="M256.008,349.792h67.561v15.812c0,18.657-15.124,33.78-33.78,33.78
	c-18.657,0-33.78-15.124-33.78-33.78h-0.009c0,18.657-15.125,33.78-33.78,33.78c-18.657,0-33.78-15.124-33.78-33.78v-15.812h67.561
	H256.008z"/>
</svg>